# xmcd
#
# Track frame offsets:
#	150
#	21248
#	37786
#	57353
#	75439
#	94418
#	113174
#	130083
#	152147
#	163485
#	181518
#	199399
#	215100
#	236199
#
# Disc length: 3551 seconds
#
# Revision: 1
# Processed by: cddbd v1.5.1PL0 Copyright (c) Steve Scherf et al.
# Submitted via: CDex 1.50Beta5
#
DISCID=c00ddd0e
DTITLE=彩菜 - プラチナ
DYEAR=2002
DGENRE=Game
TTITLE0=彩菜/White distance
TTITLE1=Platinum
TTITLE2=Pleasant every
TTITLE3=Dear
TTITLE4=Sadness
TTITLE5=Happy one time
TTITLE6=uneasy
TTITLE7=Malice
TTITLE8=Quiet day
TTITLE9=Die
TTITLE10=Tragedy
TTITLE11=Believe
TTITLE12=White distance(inst)
TTITLE13=Platinum twilight mix
EXTD=
EXTT0=
EXTT1=
EXTT2=
EXTT3=
EXTT4=
EXTT5=
EXTT6=
EXTT7=
EXTT8=
EXTT9=
EXTT10=
EXTT11=
EXTT12=
EXTT13=
PLAYORDER=
